# xmcd
#
# Track frame offsets:
#	150
#	11090
#	26479
#	52334
#	67805
#	83055
#	101481
#	119421
#	134512
#	146925
#	161027
#	178636
#	197552
#	212087
#	242832
#	256413
#	285342
#
# Disc length: 4038 seconds
#
# Revision: 1
# Processed by: cddbd v1.5.2PL0 Copyright (c) Steve Scherf et al.
# Submitted via: audiograbber 1.83.01
#
DISCID=fa0fc411
DTITLE=Udo Jügens - Mitten im Leben - Das Tribute Album
DYEAR=2014
DGENRE=Deutscher Schlager
TTITLE0=Udo Jürgens - Mitten im Leben - Live
TTITLE1=Christina Stürmer - Griechischer Wein
TTITLE2=Jamie Cullum - If I vever sing another song - Live
TTITLE3=Chris De Burgh - Mit 66 Jahren
TTITLE4=Helene Fischer - Merci Cherie
TTITLE5=Yvonne Catterfeld - Immer wieder geht die Sonne auf
TTITLE6=Tim and Lang Lang Bendzko - Vielen Dank für die Blumen - Live
TTITLE7=Annett Louisan - Wer hat meine Zeit gefunden?
TTITLE8=Labrassbanda - Es wird Nacht, Senorita - Live
TTITLE9=Santiano - The devil made the rum for us 
TTITLE10=Udo Jürgens and Jose Carreras - Mein grösster Wunsch
TTITLE11=Tim Bendzko - Verloren in mir - Live
TTITLE12=Udo Jürgens - Ich weiss, was ich will - Schiller Remix
TTITLE13=Otto Waalkes - Parodie-Medley (es wird Nacht Senorita, Friesischer Wei
TTITLE13=n))
TTITLE14=Musical Cast Recording - Ein ehrenwertes Haus
TTITLE15=Udo Jürgens - Hitmedley (17 Jahr, Griechischer Wein, Ehrenwertes Haus)
TTITLE16=Udo Jürgens - Zehn Nach Elf - Live
EXTD=1.CD von 2 CD´s\n
EXTT0=
EXTT1=
EXTT2=
EXTT3=
EXTT4=
EXTT5=
EXTT6=
EXTT7=
EXTT8=
EXTT9=
EXTT10=
EXTT11=
EXTT12=
EXTT13=
EXTT14=
EXTT15=
EXTT16=
PLAYORDER=
